<?xml version="1.0" encoding="UTF-8"?>
<svg id="Calque_1" data-name="Calque 1"
    xmlns="http://www.w3.org/2000/svg" viewBox="0 0 1503.53 1499.29">
    <defs>
        <style>
      .cls-1 {
        fill: #121221;
      }
        </style>
    </defs>
    <path class="cls-1" d="M549.65,237.48c10.57-16.58,32.61-28.57,32.41-50.9-36.16,1.87-62.74,30.18-78.73,60.15,76.24,20.08,227.25,26.33,222.68,136.8-2.45,59.21-54.94,45.29-97.57,50.88,24.06,25.93,52.71,41.76,68.93,74.7,17.8,36.16,28.03,96.17,28.38,136.12,16.3-6.57,29.98-1.13,46.33,2.33,112.95,23.94,285.58,139.7,343.73,240.02,13.61,23.48,18.83,50.1,17.61,77.38l94.91-9.31c15.49,1.43,18.44,21.64,24.25,23.23,30.05,8.25,77.32,7.65,112.58,16.11,30.24,7.26,69.15,15.5,82.62,47.12,26.66,62.6-33.47,102.53-89.88,103.66-82.03,1.65-202.63-19.88-282.27-4.69-26.91,5.13-77.86,50.4-125.16,55.53-27.92,3.03-94.8,9.97-95.09-27.84-33.65,21.86-99.05,38.24-135.94,17.87-6.95-3.84-11.85-13.28-16.95-15.48-11.36-4.89-26.05,1.06-34.73-11.39-26.32,36.89-49.35,59.1-97.24,57.98-12.3-.29-71.39-7.44-79.89-10.8-18.21-7.19-22.4-24.79-19.75-42.84-47.14,7.71-123.46,10.8-152.11-35.5-12.62-20.39-14.19-37.44,1.73-56.92,9.78-11.96,24.52-10.41,25.72-20.97,3.26-28.63-16.41-68.94-18.69-98.1-.86-11.04,5.34-19.76,3.62-30.58-3.22-20.34-30.67-54.16-22.45-82.24-60.34,20.35-150.88,35.41-201.19-14.23-80.42-79.35,77.82-100.44,95.72-139.92,16.47-36.31.73-56.89-.99-89.18-4.15-77.57-.1-124.3,53.14-183,28.16-31.05,55.41-48.25,95.03-62.51l-69.46-16.25c-3.59-8.57,7.55-16.88,7.59-20.77.05-4.61-11.21-12.91-9.88-26.1,7.06-70.12,154.98-52.19,202.87-50.31,17.35-29.49,42.78-67.89,79.98-73.89,86.28-13.92,41.75,78.61-11.85,73.78ZM673.14,331.8c-12.21-13.05-33.5-20.97-50.38-26.06-63.15-19.07-231.75-54.86-289.56-32.15-9.41,3.7-17.77,9.55-24.38,17.23,43.68,37.45,95.14,26.98,147.44,37.8,63.55,13.15,126.43,57.25,183.81,61.73,54.04,4.22,73.14-15.73,33.07-58.54ZM229.96,522.48c-3.12,20.02,2.26,46.3,0,67.18,40.97-14.52,53.55-11.34,87.62,11.99,34.99,23.96,90.78,85.04,88.9,129.41-1.39,32.95-34.49,26.63-37.5,57.8,4.58,4.22,75.5-22.42,64.16,15.39-1.53,5.1-16.92,17.07-20.17,17.07h-76.45c.75,10.54,3.16,22.58,7,32.38,24.31,62.07,123.83,133.17,184.44,158.42,24.36,10.15,98.24,20.49,106.3,37.36,29.48,61.68-97.31,23.23-102.67,27.07-14.42,10.34,7.6,36.23,6.61,46.42-2.16,22.42-29.72,18.41-20.97,45.83,31.03-8.56,55.99,17.47,87.8-2.5,20.54-12.9,26.56-36.78,39.41-48.64,5.94-5.48,16.85-6.71,19.85-10.26,11.26-13.35-.71-71.63,36.52-90.89,19.05-9.85,62.69-11.56,62.01,17.93,24.23-21.25,39.87-35.73,72.75-19.5,48.21,23.79,35.48,101.92,24.53,144.6,26.5-17.9,60.45-5.02,90.02-9.55,48.06-7.37,117.38-51.78,130.16-101.51,7.35-28.59,2.51-97.72-9.38-125.26-4.08-9.45-57.16-71.97-67.16-81.11-59.28-54.19-182.64-131.26-259.34-152.97-37.3-10.56-31.57,18.98-60.36,34.86,5.09-90.09,12.3-176.85-62.73-240.79-74.05-63.1-188.82-116.32-287.35-88.39-38.46,10.9-97.98,88.9-104.02,127.64ZM358.83,732.5c5.55-9.22-25.98-63.31-34.34-72.9-3.69-4.23-41.72-37.43-44.75-38.65-12.01-4.83-23.42-3.85-35.9-3.5,10.06,48.57.79,93.21-41.98,122.48-11.64,7.97-73.08,30.09-69.22,46.53,80.71,55.71,156.6,23.18,213.17-46.4,3.59-4.42,12.03-5.93,13.02-7.57ZM507.95,1062.31l-120.42-69.56c.18,26.18,24.76,85.98-2.89,101.4-9.15,5.1-22.78,1.78-24.92,9.74,34.77,12.76,75.84,13.66,111.15,2.36,27.58-8.82,29.74-15.42,37.08-43.94ZM1401,1054.17c-10.59-9.79-154.83-42.8-178.5-46.23-27.61-4.01-60.78-3.25-89.09-5.94,4.46,35.26-5.66,63.04-23.14,92.64,40.78,1.73,82.21-2.11,122.97-.14,38.33,1.85,156.2,28.03,176.13-13.83,2.75-5.78-4.72-23.11-8.38-26.49ZM831.65,1149.67c10.13-22.61,17.91-91.37.56-108.16-34.37-33.25-62.47,56.88-84.95,52.34-24.24-4.9-3.83-51.03-7.67-54.73-44.14-13.5-36.57,74.9-25.11,96.92,23.3,44.75,79.82,13.08,117.16,13.64Z"/>
    <path class="cls-1" d="M484.82,673c31.4,17.03,57.01-34.15,48.91-60.32-15.53-50.15-83.62-33.47-101.72,5.28-30.44,65.15,38.56,78.88,57.37,18.04l-37,9.24c-4.07-31.21,28.7-49.8,55.53-44.16,18.06,14.29,17.08,36.94,2.65,53.73-8.36,9.72-20.72,9.12-25.74,18.19Z"/>
    <path class="cls-1" d="M484.82,673c5.01-9.07,17.38-8.47,25.74-18.19,14.44-16.79,15.41-39.44-2.65-53.73-26.83-5.64-59.61,12.95-55.53,44.16l37-9.24c-18.81,60.84-87.81,47.12-57.37-18.04,18.1-38.75,86.2-55.43,101.72-5.28,8.1,26.17-17.51,77.35-48.91,60.32Z"/>
</svg>